<mxfile host="app.diagrams.net" modified="2021-11-02T02:21:38.569Z" agent="5.0 (Windows NT 10.0; Win64; x64) AppleWebKit/537.36 (KHTML, like Gecko) Chrome/95.0.4638.69 Safari/537.36" etag="to8ovTCgmyKpicvoK4Xi" version="15.6.5" type="github">
  <diagram id="FhHg46y5ClcDAhNEUa2y" name="第 1 页">
    <mxGraphModel dx="2062" dy="1075" grid="1" gridSize="10" guides="1" tooltips="1" connect="1" arrows="1" fold="1" page="1" pageScale="1" pageWidth="827" pageHeight="1169" math="0" shadow="0">
      <root>
        <mxCell id="0" />
        <mxCell id="1" parent="0" />
        <mxCell id="OBCpvcjgI4hdnxrH9U_M-1" value="预售" style="whiteSpace=wrap;html=1;aspect=fixed;" vertex="1" parent="1">
          <mxGeometry x="110" y="270" width="80" height="80" as="geometry" />
        </mxCell>
        <mxCell id="OBCpvcjgI4hdnxrH9U_M-2" value="" style="shape=curlyBracket;whiteSpace=wrap;html=1;rounded=1;" vertex="1" parent="1">
          <mxGeometry x="190" y="250" width="50" height="120" as="geometry" />
        </mxCell>
        <mxCell id="OBCpvcjgI4hdnxrH9U_M-3" value="补货延迟" style="rounded=0;whiteSpace=wrap;html=1;" vertex="1" parent="1">
          <mxGeometry x="240" y="220" width="120" height="60" as="geometry" />
        </mxCell>
        <mxCell id="OBCpvcjgI4hdnxrH9U_M-4" value="卖的好" style="rounded=0;whiteSpace=wrap;html=1;" vertex="1" parent="1">
          <mxGeometry x="240" y="340" width="120" height="60" as="geometry" />
        </mxCell>
        <mxCell id="OBCpvcjgI4hdnxrH9U_M-5" value="" style="shape=curlyBracket;whiteSpace=wrap;html=1;rounded=1;" vertex="1" parent="1">
          <mxGeometry x="360" y="190" width="54" height="120" as="geometry" />
        </mxCell>
        <mxCell id="OBCpvcjgI4hdnxrH9U_M-6" value="延迟一次" style="rounded=0;whiteSpace=wrap;html=1;" vertex="1" parent="1">
          <mxGeometry x="400" y="160" width="120" height="60" as="geometry" />
        </mxCell>
        <mxCell id="OBCpvcjgI4hdnxrH9U_M-7" value="&lt;span&gt;延迟N次&lt;/span&gt;" style="rounded=0;whiteSpace=wrap;html=1;" vertex="1" parent="1">
          <mxGeometry x="414" y="280" width="120" height="60" as="geometry" />
        </mxCell>
        <mxCell id="OBCpvcjgI4hdnxrH9U_M-8" value="&lt;ul&gt;&lt;li&gt;同一个产品怎么区分补货延迟和卖得好&amp;nbsp; &amp;nbsp; &amp;nbsp; &amp;nbsp; &amp;nbsp; &amp;nbsp; &amp;nbsp; 状态识别是补货还是延迟&amp;nbsp; &amp;nbsp;&lt;/li&gt;&lt;li&gt;延迟补货一次和N次邮件发送应该怎么处理&amp;nbsp; &amp;nbsp; &amp;nbsp; &amp;nbsp; 状态触发是否发邮件，但是多次延迟怎么识别&lt;/li&gt;&lt;li&gt;邮件是在什么时候触发发送&amp;nbsp; &amp;nbsp; &amp;nbsp; &amp;nbsp; &amp;nbsp; &amp;nbsp; &amp;nbsp; &amp;nbsp; &amp;nbsp; &amp;nbsp; &lt;span style=&quot;white-space: pre&quot;&gt;	&lt;/span&gt;&lt;span style=&quot;white-space: pre&quot;&gt;	&lt;/span&gt;&amp;nbsp; &amp;nbsp; 保存修改延迟到货周时加入任务队列&lt;/li&gt;&lt;/ul&gt;" style="text;strokeColor=none;fillColor=none;html=1;whiteSpace=wrap;verticalAlign=middle;overflow=hidden;fontColor=default;" vertex="1" parent="1">
          <mxGeometry x="132" y="450" width="510" height="120" as="geometry" />
        </mxCell>
      </root>
    </mxGraphModel>
  </diagram>
</mxfile>
